<svg xmlns="http://www.w3.org/2000/svg" width="32" height="32" fill="none"><g clip-path="url(#a)"><path fill="#253A56" d="M27.689 0c.24.043.482.074.72.129 1.824.409 3.289 2.092 3.534 4.062.034.273.052.548.053.824.004 2.782.005 5.565.004 8.347a.292.292 0 0 1-.028.149.269.269 0 0 1-.097.111c-1.954 1.478-3.963 2.863-6.093 4.04-2.299 1.27-4.69 2.278-7.217 2.905a24.139 24.139 0 0 1-3.882.637 22.637 22.637 0 0 1-3.791-.01C7.339 20.882 3.911 20.035.663 18.44c-.182-.089-.357-.197-.54-.285-.092-.045-.118-.106-.118-.211.003-2.237.003-4.474 0-6.71 0-2.104-.009-4.208.003-6.312.009-1.575.597-2.87 1.749-3.86A4.268 4.268 0 0 1 4.189.029.905.905 0 0 0 4.314 0l23.377-.002-.002.002Z"/><path fill="#fff" d="M7.484 13.84c.154-.012.272-.007.383-.034.154-.034.305-.085.45-.153.525-.261 1.054-.512 1.563-.806 4.159-2.397 8.571-4.075 13.145-5.292 1.465-.39 2.948-.704 4.422-1.061.25-.061.505-.132.734-.251.377-.197.447-.609.191-.965a.913.913 0 0 0-.277-.263.853.853 0 0 0-.353-.12c-.637-.076-1.273-.025-1.907.043-1.42.151-2.824.412-4.224.706a93.494 93.494 0 0 0-7.339 1.859c-1.751.52-3.489 1.085-5.168 1.84-.772.348-1.528.731-2.208 1.263-.303.237-.572.508-.767.861-.389.706-.191 2.074.893 2.308.167.035.334.047.462.065Z"/><path fill="#B0882C" d="m4.448 32-.451-.068c-1.333-.193-2.382-.882-3.16-2.042a4.75 4.75 0 0 1-.813-2.51 45.083 45.083 0 0 1-.023-1.516c-.003-1.308 0-2.616 0-3.924v-.184a.735.735 0 0 1 .1.043c1.696 1.115 3.532 1.865 5.461 2.354.891.226 1.796.402 2.701.548.731.118 1.473.176 2.212.225.774.051 1.551.078 2.326.078.694 0 1.389-.026 2.081-.086 1.292-.11 2.567-.365 3.823-.712 2.847-.786 5.542-1.979 8.127-3.459a35.408 35.408 0 0 0 5.064-3.489c.025-.021.053-.038.101-.071v.169c0 3.227.005 6.458-.002 9.687-.005 2.441-1.563 4.308-3.53 4.797-.242.06-.49.079-.735.118-.061.01-.121.026-.18.04l-23.103.003.001-.001Z"/><path fill="#fff" d="M5.563 24.261c.891.226 1.796.402 2.701.548.731.118 1.473.176 2.212.225.774.051 1.551.078 2.326.078.694 0 1.39-.026 2.081-.086.425-.049.835-.099 1.235-.15a22.73 22.73 0 0 0 2.588-.562c2.847-.786 5.542-1.979 8.127-3.459a35.408 35.408 0 0 0 5.064-3.489c.025-.021.053-.038.101-.071v-3.829a.292.292 0 0 1-.028.149.269.269 0 0 1-.097.111c-1.955 1.478-3.963 2.863-6.093 4.04-2.299 1.27-4.69 2.278-7.217 2.906a24.103 24.103 0 0 1-3.88.64 22.637 22.637 0 0 1-3.791-.01C7.339 20.99 3.911 20.143.663 18.548c-.182-.09-.357-.197-.54-.285-.092-.045-.118-.106-.118-.211v3.813a.735.735 0 0 1 .1.043c1.693 1.114 3.528 1.864 5.458 2.353Z"/></g><defs><clipPath id="a"><path fill="#fff" d="M0 0h32v32H0z"/></clipPath></defs></svg>