<svg xmlns="http://www.w3.org/2000/svg" width="112" height="31" fill="none"><path fill="#1F3C58" d="M61.042 30.32v-3.424c.5 0 .987.02 1.472-.004.936-.045 1.863-.157 2.755-.462 1.607-.549 2.513-1.793 2.487-3.45h-.296c-.883-.015-1.768-.003-2.65-.051a5.919 5.919 0 0 1-2.903-.935c-1.263-.807-1.918-2-2.138-3.437-.197-1.282-.116-2.553.334-3.786.885-2.429 3.284-3.961 5.872-3.789 1.55.104 2.868.638 3.841 1.88.626.798.987 1.721 1.135 2.712.116.783.16 1.577.205 2.368.03.536.006 1.074.006 1.619.067.012.116.03.165.03 1.484-.007 2.969.002 4.453-.036.374-.009.76-.13 1.115-.265.608-.23.816-.739.817-1.352v-4.393H81.1v.283c0 1.324.03 2.65-.01 3.972-.034 1.16.92 1.717 1.688 1.764.308.018.617.029.926.028 1.716-.006 3.432-.004 5.148-.032.72-.012 1.436-.122 2.108-.407.62-.263 1.1-.661 1.252-1.356.097-.44.001-.866-.214-1.236-.52-.891-1.023-1.802-1.64-2.626-1.168-1.56-2.415-3.062-3.62-4.595a.54.54 0 0 1-.1-.386c.152-.796.32-1.588.499-2.379a.423.423 0 0 1 .201-.254c3.86-1.871 7.722-3.736 11.585-5.6.044-.022.091-.04.158-.067.462 1.03.92 2.046 1.39 3.09L90.054 8.542c.03.056.046.094.07.126 2.096 2.768 4.18 5.546 6.299 8.298.45.584.99 1.114 1.545 1.603.814.716 1.795 1.034 2.888 1.028 1.896-.01 3.794-.04 5.689.008 1.707.043 2.265-1.083 2.146-2.407-.136-1.508-.466-2.98-.821-4.45-.02-.081-.038-.164-.063-.275l3.205-.965c.122.527.267 1.035.353 1.553.217 1.303.45 2.607.595 3.919.142 1.292-.08 2.542-.803 3.657-1.021 1.572-2.531 2.296-4.364 2.334-2.067.042-4.136.015-6.204.008-2.047-.007-3.808-.694-5.211-2.21-.262-.283-.532-.557-.799-.834-.004-.004-.015-.002-.023-.003-.008.003-.021.004-.023.01-.68 1.505-1.987 2.196-3.475 2.643-.969.29-1.966.393-2.973.398-1.665.007-3.33.007-4.994-.006-1.006-.007-1.983-.175-2.873-.673-.282-.157-.54-.358-.826-.551-.62.5-1.332.857-2.126.998-.665.118-1.342.202-2.015.22-1.26.034-2.523.01-3.784.01h-.31c-.027.3-.048.585-.078.87-.326 3.112-2.171 4.942-5.047 5.872-1.608.52-3.28.596-4.99.598Zm6.733-10.742v-.26c-.009-.725.013-1.452-.037-2.173a5.36 5.36 0 0 0-.275-1.345c-.313-.914-1-1.41-1.887-1.436-1.057-.03-1.936.449-2.277 1.338a5.02 5.02 0 0 0-.298 1.465c-.074 1.174.575 2.012 1.72 2.3.223.056.454.103.682.107.778.012 1.556.004 2.372.004Z"/><path fill="#1F3C58" d="m76.133 7.226 2.466-2.366 2.408 2.4-2.38 2.37c-.807-.776-1.643-1.583-2.494-2.404ZM109.601 4.187l2.305 2.305-2.243 2.227-2.304-2.22 2.242-2.312ZM101.584 6.53l2.237-2.321 2.332 2.321-2.264 2.211-2.305-2.21Z"/><path fill="#A8843A" d="M16.993 19.825c-.117-.144-.186-.236-.262-.322-.967-1.09-1.39-2.368-1.236-3.804.17-1.575.978-2.8 2.272-3.704 1.999-1.395 4.712-1.463 6.626-.15 1.344.922 2.054 2.226 2.227 3.836.145 1.346-.149 2.573-.949 3.675-.038.053-.064.115-.117.21.187.022.344.055.502.055 2.574.004 5.148.011 7.721.001 1.203-.005 1.956-.775 1.916-2.048-.026-.837-.176-1.674-.322-2.503-.141-.803-.349-1.596-.525-2.393-.012-.057-.01-.117-.015-.196l3.159-.948c.187.914.378 1.785.542 2.662.234 1.248.427 2.499.394 3.779-.062 2.36-1.706 4.366-4.023 4.836-.416.085-.849.124-1.274.125-2.668.004-5.337.011-8.005-.022a18.067 18.067 0 0 1-4.267-.545c-.14-.036-.3-.016-.447.01-.916.158-1.826.38-2.75.478-1.428.15-2.865.264-4.301.304-1.594.045-3.19.002-4.785-.024a37.192 37.192 0 0 1-2.258-.117c-1.065-.082-2.134-.15-3.174-.422-1.865-.49-2.964-1.724-3.446-3.54-.298-1.12-.225-2.254.01-3.371.192-.907.451-1.8.671-2.7.05-.2.136-.234.326-.172.894.293 1.79.58 2.69.854.195.06.226.127.178.324-.249 1.025-.51 2.05-.693 3.086-.073.413-.02.877.091 1.286.215.787.841 1.102 1.611 1.16 1.698.127 3.395.288 5.096.353 1.773.067 3.55.045 5.325.045.475 0 .949-.06 1.492-.098Zm4.27-5.567a2.608 2.608 0 0 0-1.333.328c-1.297.697-1.542 1.928-.855 3.016.463.731 1.216 1.077 1.997 1.361.064.024.16.013.22-.02.45-.243.931-.448 1.333-.755.705-.54.959-1.313.803-2.166-.177-.973-1.225-1.766-2.165-1.764ZM53.119 9.412c0-1.939.004-3.877-.005-5.815-.002-.24.056-.325.312-.32.926.015 1.852.01 2.779.001.2-.002.27.055.269.26-.005 3.578.01 7.156-.011 10.734-.008 1.32-.1 2.634-.438 3.927-.641 2.46-2.277 3.843-4.695 4.418-1.005.239-2.027.323-3.057.324-1.896.001-3.791-.003-5.687.006-.25 0-.345-.057-.34-.326.017-.897.016-1.794 0-2.69-.004-.256.084-.311.324-.31 1.853.009 3.706.029 5.559-.006a13.23 13.23 0 0 0 2.418-.249c1.442-.298 2.259-1.238 2.409-2.692.089-.863.142-1.733.156-2.6.024-1.554.007-3.108.007-4.662Z"/><path fill="#A8843A" d="M45.549 17.285c-.472 0-.944-.005-1.416.002-.155.002-.232-.035-.243-.209-.04-.646-.095-1.291-.14-1.937-.069-.986-.136-1.972-.201-2.958-.038-.579-.07-1.157-.109-1.736-.065-.986-.134-1.972-.199-2.958-.039-.596-.073-1.191-.11-1.787-.034-.544-.065-1.088-.106-1.632-.014-.196.056-.262.258-.283.944-.097 1.886-.206 2.827-.329.185-.024.22.025.23.19.082 1.344.17 2.687.257 4.031l.26 3.98.256 3.929c.032.484.06.97.1 1.453.017.196-.06.251-.248.247-.472-.01-.944-.003-1.416-.003ZM18.941 5.466l2.426-2.345 2.39 2.37-2.343 2.328-2.473-2.353ZM39.534 28.098l-2.198 2.187-2.273-2.175 2.202-2.271 2.269 2.259ZM31.52 30.374c-.179-.188-.374-.4-.577-.607a245.61 245.61 0 0 0-1.465-1.475c-.1-.101-.167-.184-.036-.318.676-.691 1.346-1.388 2.02-2.082.016-.017.044-.023.132-.067.205.224.417.469.645.7.474.48.956.955 1.436 1.432.08.08.17.157.048.275-.724.702-1.446 1.406-2.203 2.142Z"/></svg>