<svg width="1588" height="74" viewBox="0 0 1588 74" fill="none" xmlns="http://www.w3.org/2000/svg">
<g clip-path="url(#clip0_14397_82267)">
<rect x="1" y="1" width="1586" height="72" rx="9" fill="#FF334B" stroke="#FF334B" stroke-width="2"/>
<rect x="726" y="21" width="136" height="31" rx="3" fill="#FCFEFF"/>
<rect x="729" y="24" width="130" height="25" rx="1" fill="#FF3243"/>
<path fill-rule="evenodd" clip-rule="evenodd" d="M746.414 31.2658L744.301 29.1163C744.177 28.9899 744.266 28.7764 744.443 28.7761L753.771 28.7598C753.882 28.7596 753.971 28.849 753.971 28.9594L753.975 31.1126C753.975 31.2231 753.886 31.3128 753.776 31.313L746.557 31.3256C746.503 31.3257 746.451 31.3041 746.414 31.2658ZM746.479 34.73L752.948 34.7187C753.058 34.7185 753.148 34.8079 753.148 34.9183L753.152 37.0715C753.152 37.182 753.063 37.2717 752.952 37.2718L746.483 37.2832L746.487 39.4713C746.487 39.5236 746.466 39.5739 746.43 39.6113L744.334 41.759C744.208 41.8873 743.99 41.7986 743.99 41.6193L743.99 31.2426C743.99 31.0636 744.207 30.9747 744.333 31.1024L746.437 33.2433C746.474 33.2813 746.495 33.3326 746.494 33.3858L746.479 34.73ZM744.326 43.7555L746.432 41.5986C746.469 41.5601 746.521 41.5384 746.575 41.5383L753.793 41.5257C753.904 41.5255 753.994 41.6149 753.994 41.7254L753.997 43.8785C753.998 43.989 753.908 44.0787 753.798 44.0789L744.47 44.0952C744.293 44.0955 744.203 43.8823 744.326 43.7555ZM733.977 31.1196V28.9664C733.977 28.856 734.066 28.7664 734.177 28.7664H741.279C741.39 28.7664 741.479 28.856 741.479 28.9664V43.8856C741.479 43.9961 741.39 44.0856 741.279 44.0856H739.178C739.068 44.0856 738.978 43.9961 738.978 43.8856V31.3196H734.177C734.066 31.3196 733.977 31.2301 733.977 31.1196ZM762.17 41.4929C758.937 40.629 757.32 38.9273 757.32 35.575C757.32 33.0218 759.821 30.4686 763.99 32.1707L762.533 35.1433C762.485 35.2407 762.605 35.3338 762.688 35.2635L767.189 31.4338C767.266 31.3685 767.283 31.2569 767.219 31.179C766.494 30.2947 764.016 28.7664 761.489 28.7664C759.82 28.7664 755.486 29.9579 754.819 34.7239C754.544 37.5292 754.812 42.2763 762.074 44.0276C762.198 44.0577 762.322 43.9635 762.322 43.8351V41.6878C762.322 41.5964 762.259 41.5165 762.17 41.4929ZM767.123 44.0856H765.022C764.911 44.0856 764.822 43.9961 764.822 43.8856V37.3587C764.822 37.3064 764.842 37.2561 764.879 37.2188L767.264 34.7839C767.302 34.7455 767.353 34.7239 767.407 34.7239H773.158V28.9664C773.158 28.856 773.248 28.7664 773.358 28.7664H775.459C775.57 28.7664 775.659 28.856 775.659 28.9664V43.8856C775.659 43.9961 775.57 44.0856 775.459 44.0856H773.358C773.248 44.0856 773.158 43.9961 773.158 43.8856V37.2771H767.323V43.8856C767.323 43.9961 767.233 44.0856 767.123 44.0856ZM831.847 29.1064L833.956 31.2596C833.994 31.298 834.046 31.3196 834.099 31.3196H841.318C841.429 31.3196 841.518 31.2301 841.518 31.1196V28.9664C841.518 28.856 841.429 28.7664 841.318 28.7664H831.99C831.813 28.7664 831.723 28.9798 831.847 29.1064ZM831.024 30.8186L833.125 32.9634C833.161 33.0008 833.182 33.0511 833.182 33.1034V35.575H840.485C840.595 35.575 840.685 35.6645 840.685 35.775V37.9281C840.685 38.0386 840.595 38.1281 840.485 38.1281H833.182V43.8856C833.182 43.9961 833.092 44.0856 832.982 44.0856H830.881C830.77 44.0856 830.681 43.9961 830.681 43.8856V30.9586C830.681 30.7794 830.898 30.6906 831.024 30.8186ZM845.186 29.1064L847.295 31.2596C847.333 31.298 847.384 31.3196 847.438 31.3196H854.657C854.767 31.3196 854.857 31.2301 854.857 31.1196V28.9664C854.857 28.856 854.767 28.7664 854.657 28.7664H845.329C845.152 28.7664 845.062 28.9798 845.186 29.1064ZM844.362 30.8186L846.463 32.9634C846.5 33.0008 846.52 33.0511 846.52 33.1034V35.575H853.823C853.934 35.575 854.023 35.6645 854.023 35.775V37.9281C854.023 38.0386 853.934 38.1281 853.823 38.1281H846.52V43.8856C846.52 43.9961 846.431 44.0856 846.32 44.0856H844.22C844.109 44.0856 844.02 43.9961 844.02 43.8856V30.9586C844.02 30.7794 844.237 30.6906 844.362 30.8186ZM780.604 37.2177L778.332 34.8978C778.269 34.8338 778.16 34.8782 778.16 34.9678V43.8845C778.16 43.995 778.25 44.0845 778.36 44.0845H780.461C780.572 44.0845 780.661 43.995 780.661 43.8845V37.3576C780.661 37.3053 780.641 37.2551 780.604 37.2177ZM778.16 32.085V28.997C778.16 28.9095 778.265 28.8642 778.328 28.924L788.164 38.1281V28.9664C788.164 28.856 788.254 28.7664 788.364 28.7664H790.465C790.575 28.7664 790.665 28.856 790.665 28.9664V43.7588C790.665 43.8819 790.518 43.9451 790.428 43.8602L778.222 32.2298C778.183 32.1921 778.16 32.1397 778.16 32.085Z" fill="white"/>
<path d="M807.255 29.6161C807.255 33.3842 804.272 36.3767 800.669 36.3767C797.065 36.3767 794.082 33.3842 794.082 29.6161C794.082 25.848 797.065 22.8555 800.669 22.8555C804.272 22.8555 807.255 25.848 807.255 29.6161Z" fill="#FF3243" stroke="#FCC82F" stroke-width="3.5"/>
<path d="M827.263 43.2333C827.263 47.0014 824.28 49.9939 820.676 49.9939C817.073 49.9939 814.09 47.0014 814.09 43.2333C814.09 39.4652 817.073 36.4727 820.676 36.4727C824.28 36.4727 827.263 39.4652 827.263 43.2333Z" fill="#FF3243" stroke="#FCC82F" stroke-width="3.5"/>
<path d="M826.512 16L792.332 56H795.667L829.846 16H826.512Z" fill="#FCC82F"/>
<g style="mix-blend-mode:multiply" opacity="0.15">
<path d="M1573.31 21.7726C1573.21 28.0184 1569.18 31.2621 1564.7 31.2457C1559.82 31.2272 1555.91 27.5953 1556 21.6309C1556.09 15.9594 1559.77 11.9195 1565.24 12.3159C1570.55 12.7006 1573.38 16.6756 1573.31 21.7726ZM1561.71 21.6514C1561.66 24.9088 1562.76 27.2769 1564.91 27.3153C1566.97 27.3522 1568 25.3107 1568.06 21.8931C1568.1 18.8027 1567.29 16.3654 1565.03 16.234C1562.84 16.106 1561.77 18.5384 1561.71 21.6514ZM1566.24 41.7279L1581.79 14.4088C1581.94 14.1529 1582.16 13.9429 1582.42 13.8038C1582.69 13.6648 1582.99 13.6024 1583.29 13.6242C1583.55 13.6433 1583.8 13.726 1584.02 13.8646C1584.25 14.0032 1584.43 14.1934 1584.55 14.4177C1584.68 14.642 1584.74 14.8934 1584.74 15.1487C1584.74 15.404 1584.68 15.6552 1584.55 15.8793L1569.17 43.1958C1569.04 43.4261 1568.86 43.6201 1568.63 43.759C1568.4 43.8979 1568.13 43.977 1567.86 43.9886L1567.69 43.9961C1567.41 44.0081 1567.13 43.9476 1566.89 43.8206C1566.64 43.6937 1566.43 43.505 1566.28 43.274C1566.14 43.043 1566.06 42.7781 1566.05 42.5066C1566.04 42.235 1566.11 41.9667 1566.25 41.7293L1566.24 41.7279ZM1592.85 34.0301C1592.76 39.8137 1589.3 42.9781 1585.47 43.1417C1581.35 43.317 1578.02 40.1294 1578.06 34.6305C1578.15 29.4027 1581.28 25.5175 1585.95 25.6393C1590.49 25.7591 1592.92 29.3096 1592.85 34.0301ZM1582.97 34.4093C1582.88 37.4176 1583.82 39.557 1585.65 39.505C1587.42 39.455 1588.3 37.5257 1588.35 34.3648C1588.4 31.5072 1587.74 29.2904 1585.81 29.2678C1583.9 29.2452 1583.02 31.5353 1582.97 34.4093H1582.97Z" fill="#FCFEFF"/>
</g>
<path d="M1573.79 21.4816C1573.69 27.726 1569.67 30.9718 1565.19 30.9547C1560.31 30.9369 1556.39 27.3043 1556.49 21.3398C1556.58 15.6684 1560.26 11.6285 1565.73 12.0249C1571.03 12.4089 1573.87 16.3852 1573.79 21.4816ZM1562.2 21.3617C1562.15 24.6192 1563.25 26.9873 1565.4 27.0256C1567.46 27.0633 1568.49 25.0211 1568.55 21.6034C1568.59 18.5137 1567.78 16.0758 1565.52 15.945C1563.33 15.817 1562.25 18.2481 1562.2 21.3617ZM1566.73 41.4369L1582.28 14.1205C1582.42 13.8643 1582.64 13.6539 1582.91 13.5143C1583.17 13.3747 1583.47 13.3119 1583.77 13.3332C1584.03 13.3521 1584.29 13.4347 1584.51 13.5733C1584.73 13.7118 1584.91 13.902 1585.04 14.1264C1585.16 14.3508 1585.23 14.6022 1585.23 14.8576C1585.23 15.113 1585.16 15.3643 1585.04 15.5883L1569.66 42.9048C1569.53 43.1345 1569.34 43.328 1569.11 43.4667C1568.88 43.6053 1568.62 43.6843 1568.35 43.6962L1568.18 43.703C1567.9 43.7154 1567.62 43.6551 1567.37 43.5283C1567.13 43.4016 1566.92 43.213 1566.77 42.982C1566.62 42.7511 1566.54 42.4861 1566.53 42.2145C1566.53 41.9429 1566.6 41.6745 1566.73 41.4369ZM1593.33 33.739C1593.24 39.52 1589.79 42.6877 1585.96 42.8507C1581.83 43.0266 1578.51 39.8383 1578.55 34.3394C1578.63 29.1137 1581.77 25.2264 1586.44 25.3483C1590.98 25.4667 1593.41 29.0186 1593.33 33.739ZM1583.46 34.1183C1583.37 37.1265 1584.3 39.2667 1586.14 39.2146C1587.9 39.164 1588.78 37.2347 1588.83 34.0738C1588.88 31.2162 1588.22 29.0001 1586.29 28.9775C1584.38 28.9549 1583.5 31.2443 1583.46 34.1183Z" fill="#FCFEFF"/>
<g style="mix-blend-mode:multiply" opacity="0.15">
<path d="M1511.04 16.0802C1512.15 20.0445 1510.37 22.6791 1507.72 23.317C1504.83 24.0117 1501.84 22.2806 1500.78 18.4947C1499.78 14.8943 1501.21 11.8063 1504.52 11.2656C1507.73 10.7411 1510.14 12.8448 1511.04 16.0802ZM1504.17 17.6809C1504.74 19.7487 1505.83 21.0877 1507.11 20.8014C1508.34 20.526 1508.57 19.0857 1507.96 16.9163C1507.42 14.9545 1506.48 13.531 1505.12 13.7742C1503.8 14.0099 1503.62 15.7044 1504.17 17.6809ZM1510.58 29.7245L1514.7 10.1942C1514.73 10.0113 1514.82 9.84688 1514.95 9.72057C1515.09 9.59426 1515.25 9.51134 1515.43 9.48165C1515.59 9.45578 1515.76 9.47142 1515.91 9.52713C1516.07 9.58284 1516.21 9.67685 1516.33 9.80056C1516.44 9.92427 1516.53 10.0737 1516.58 10.2353C1516.63 10.3968 1516.63 10.5653 1516.6 10.7253L1512.58 30.2289C1512.55 30.3934 1512.47 30.5434 1512.36 30.6645C1512.25 30.7856 1512.11 30.8736 1511.96 30.92L1511.86 30.9497C1511.69 30.9978 1511.52 30.9996 1511.35 30.9552C1511.18 30.9107 1511.02 30.8214 1510.89 30.6966C1510.76 30.5718 1510.66 30.416 1510.61 30.2452C1510.55 30.0744 1510.54 29.8948 1510.58 29.7249L1510.58 29.7245ZM1524.88 21.0056C1525.9 24.6771 1524.45 27.1784 1522.21 27.8365C1519.81 28.5439 1517.25 27.0089 1516.25 23.5246C1515.33 20.2061 1516.46 17.2945 1519.24 16.6963C1521.95 16.1147 1524.05 18.0091 1524.88 21.0056ZM1519.11 22.6745C1519.62 24.5903 1520.57 25.8081 1521.64 25.5098C1522.68 25.223 1522.84 23.8746 1522.28 21.8681C1521.78 20.0541 1520.98 18.7468 1519.83 19.0115C1518.7 19.2745 1518.6 20.8503 1519.11 22.6743L1519.11 22.6745Z" fill="#FCFEFF"/>
</g>
<path d="M1511.31 15.8484C1512.39 19.794 1510.59 22.43 1507.93 23.0794C1505.03 23.787 1502.04 22.0766 1501 18.3082C1500.02 14.725 1501.47 11.6397 1504.79 11.0835C1508.02 10.5437 1510.43 12.6288 1511.31 15.8484ZM1504.4 17.4803C1504.97 19.5379 1506.05 20.8673 1507.34 20.5749C1508.57 20.2943 1508.81 18.8571 1508.22 16.6978C1507.68 14.7458 1506.75 13.3314 1505.39 13.5811C1504.06 13.8243 1503.86 15.5131 1504.4 17.4803ZM1510.76 29.4505L1515.01 9.96445C1515.05 9.78174 1515.14 9.61719 1515.27 9.49033C1515.41 9.36346 1515.57 9.27962 1515.76 9.24876C1515.91 9.22203 1516.08 9.23668 1516.24 9.29135C1516.39 9.34603 1516.54 9.439 1516.65 9.56173C1516.77 9.68447 1516.85 9.83305 1516.9 9.99388C1516.95 10.1547 1516.95 10.3226 1516.92 10.4823L1512.77 29.9433C1512.73 30.1071 1512.66 30.2567 1512.54 30.3777C1512.43 30.4987 1512.29 30.5871 1512.13 30.6343L1512.03 30.664C1511.87 30.7129 1511.69 30.7159 1511.52 30.6726C1511.35 30.6293 1511.19 30.5412 1511.06 30.4176C1510.94 30.2939 1510.84 30.1391 1510.78 29.9691C1510.73 29.7991 1510.72 29.6201 1510.76 29.4505ZM1525.16 20.6864C1526.16 24.3386 1524.69 26.8415 1522.44 27.5087C1520.02 28.2267 1517.47 26.7095 1516.49 23.2418C1515.58 19.9401 1516.74 17.0309 1519.53 16.4201C1522.25 15.8258 1524.34 17.7037 1525.16 20.6864ZM1519.36 22.3798C1519.86 24.2866 1520.8 25.4961 1521.89 25.1932C1522.92 24.9015 1523.1 23.5566 1522.55 21.5596C1522.05 19.7541 1521.26 18.4556 1520.11 18.7254C1518.97 18.9931 1518.87 20.5635 1519.36 22.3798Z" fill="#FCFEFF"/>
<g style="mix-blend-mode:multiply" opacity="0.15">
<path d="M1476.04 67.0802C1477.15 71.0445 1475.37 73.6791 1472.72 74.317C1469.83 75.0117 1466.84 73.2806 1465.78 69.4947C1464.78 65.8943 1466.21 62.8063 1469.52 62.2656C1472.73 61.7411 1475.14 63.8448 1476.04 67.0802ZM1469.17 68.6809C1469.74 70.7487 1470.83 72.0877 1472.11 71.8014C1473.34 71.526 1473.57 70.0857 1472.96 67.9163C1472.42 65.9545 1471.48 64.531 1470.12 64.7742C1468.8 65.0099 1468.62 66.7044 1469.17 68.6809ZM1475.58 80.7245L1479.7 61.1942C1479.73 61.0113 1479.82 60.8469 1479.95 60.7206C1480.09 60.5943 1480.25 60.5113 1480.43 60.4816C1480.59 60.4558 1480.76 60.4714 1480.91 60.5271C1481.07 60.5828 1481.21 60.6769 1481.33 60.8006C1481.44 60.9243 1481.53 61.0737 1481.58 61.2353C1481.63 61.3968 1481.63 61.5653 1481.6 61.7253L1477.58 81.2289C1477.55 81.3934 1477.47 81.5434 1477.36 81.6645C1477.25 81.7856 1477.11 81.8736 1476.96 81.92L1476.86 81.9497C1476.69 81.9978 1476.52 81.9996 1476.35 81.9552C1476.18 81.9107 1476.02 81.8214 1475.89 81.6966C1475.76 81.5718 1475.66 81.416 1475.61 81.2452C1475.55 81.0744 1475.54 80.8948 1475.58 80.7249L1475.58 80.7245ZM1489.88 72.0056C1490.9 75.6771 1489.45 78.1784 1487.21 78.8365C1484.81 79.5439 1482.25 78.0089 1481.25 74.5246C1480.33 71.2061 1481.46 68.2945 1484.24 67.6963C1486.95 67.1147 1489.05 69.0091 1489.88 72.0056ZM1484.11 73.6745C1484.62 75.5903 1485.57 76.8081 1486.64 76.5098C1487.68 76.223 1487.84 74.8746 1487.28 72.8681C1486.78 71.0541 1485.98 69.7468 1484.83 70.0115C1483.7 70.2745 1483.6 71.8503 1484.11 73.6743L1484.11 73.6745Z" fill="#FCFEFF"/>
</g>
<path d="M1476.31 66.8484C1477.39 70.794 1475.59 73.43 1472.93 74.0794C1470.03 74.787 1467.04 73.0766 1466 69.3082C1465.02 65.725 1466.47 62.6397 1469.79 62.0835C1473.02 61.5437 1475.43 63.6288 1476.31 66.8484ZM1469.4 68.4803C1469.97 70.5379 1471.05 71.8673 1472.34 71.5749C1473.57 71.2943 1473.81 69.8571 1473.22 67.6978C1472.68 65.7458 1471.75 64.3314 1470.39 64.5811C1469.06 64.8243 1468.86 66.5131 1469.4 68.4803ZM1475.76 80.4505L1480.01 60.9644C1480.05 60.7817 1480.14 60.6172 1480.27 60.4903C1480.41 60.3635 1480.57 60.2796 1480.76 60.2488C1480.91 60.222 1481.08 60.2367 1481.24 60.2914C1481.39 60.346 1481.54 60.439 1481.65 60.5617C1481.77 60.6845 1481.85 60.8331 1481.9 60.9939C1481.95 61.1547 1481.95 61.3226 1481.92 61.4823L1477.77 80.9433C1477.73 81.1071 1477.66 81.2567 1477.54 81.3777C1477.43 81.4987 1477.29 81.5871 1477.13 81.6343L1477.03 81.664C1476.87 81.7129 1476.69 81.7159 1476.52 81.6726C1476.35 81.6293 1476.19 81.5412 1476.06 81.4176C1475.94 81.2939 1475.84 81.1391 1475.78 80.9691C1475.73 80.7991 1475.72 80.6201 1475.76 80.4505ZM1490.16 71.6864C1491.16 75.3386 1489.69 77.8415 1487.44 78.5087C1485.02 79.2267 1482.47 77.7095 1481.49 74.2418C1480.58 70.9401 1481.74 68.0309 1484.53 67.4201C1487.25 66.8258 1489.34 68.7037 1490.16 71.6864ZM1484.36 73.3798C1484.86 75.2866 1485.8 76.4961 1486.89 76.1932C1487.92 75.9015 1488.1 74.5566 1487.55 72.5596C1487.05 70.7541 1486.26 69.4556 1485.11 69.7254C1483.97 69.9931 1483.87 71.5635 1484.36 73.3798Z" fill="#FCFEFF"/>
<g style="mix-blend-mode:multiply" opacity="0.15">
<path d="M1541.52 34.1099C1539.93 36.7295 1537.5 37.1748 1535.69 36.1374C1533.72 35.0069 1533.04 32.571 1534.55 30.0699C1536 27.6924 1538.49 26.8305 1540.61 28.2561C1542.66 29.6393 1542.82 31.9727 1541.52 34.1099ZM1536.86 31.3927C1536.03 32.7585 1535.89 34.0125 1536.75 34.5222C1537.57 35.0127 1538.5 34.3862 1539.37 32.9532C1540.15 31.6575 1540.43 30.439 1539.55 29.8648C1538.69 29.3072 1537.65 30.0881 1536.86 31.3927ZM1533.71 40.9244L1546.78 32.9481C1546.91 32.8734 1547.05 32.8348 1547.19 32.8369C1547.33 32.8391 1547.47 32.8818 1547.58 32.9601C1547.68 33.0285 1547.77 33.1217 1547.82 33.2312C1547.88 33.3406 1547.9 33.4628 1547.9 33.5865C1547.89 33.7103 1547.86 33.8317 1547.79 33.9396C1547.73 34.0475 1547.64 34.1386 1547.53 34.2043L1534.53 42.219C1534.42 42.2866 1534.3 42.3252 1534.17 42.3311C1534.04 42.337 1533.92 42.3101 1533.8 42.2528L1533.73 42.2164C1533.62 42.1572 1533.52 42.0677 1533.45 41.9571C1533.38 41.8465 1533.34 41.7189 1533.34 41.5874C1533.34 41.4558 1533.37 41.3251 1533.44 41.2088C1533.5 41.0925 1533.6 40.9947 1533.71 40.9256L1533.71 40.9244ZM1546.38 43.788C1544.91 46.213 1542.73 46.7566 1541.14 45.9444C1539.43 45.0702 1538.87 42.9573 1540.25 40.6418C1541.58 38.4497 1543.82 37.5285 1545.68 38.6534C1547.48 39.7489 1547.59 41.8088 1546.38 43.788ZM1542.29 41.6771C1541.51 42.9286 1541.36 44.0486 1542.11 44.4484C1542.84 44.8328 1543.68 44.2206 1544.48 42.8953C1545.21 41.6971 1545.49 40.609 1544.72 40.1559C1543.95 39.7057 1543.03 40.4718 1542.3 41.6774L1542.29 41.6771Z" fill="#FCFEFF"/>
</g>
<path d="M1541.79 34.1068C1540.2 36.7236 1537.77 37.1696 1535.96 36.1309C1533.99 35.0004 1533.3 32.5644 1534.82 30.0646C1536.26 27.6874 1538.76 26.8267 1540.87 28.2529C1542.92 29.6365 1543.09 31.9704 1541.79 34.1068ZM1537.13 31.3888C1536.3 32.7548 1536.16 34.0079 1537.02 34.5187C1537.84 35.01 1538.77 34.3835 1539.64 32.9511C1540.42 31.6561 1540.7 30.4375 1539.82 29.8635C1538.96 29.3035 1537.92 30.0838 1537.13 31.3888ZM1533.98 40.9175L1547.05 32.9481C1547.17 32.8732 1547.31 32.8344 1547.46 32.8364C1547.6 32.8383 1547.73 32.8809 1547.85 32.9591C1547.95 33.0275 1548.03 33.1207 1548.09 33.2301C1548.14 33.3396 1548.17 33.4618 1548.17 33.5856C1548.16 33.7093 1548.13 33.8307 1548.06 33.9386C1548 34.0465 1547.91 34.1375 1547.8 34.2031L1534.8 42.2116C1534.69 42.2789 1534.57 42.3173 1534.44 42.3232C1534.31 42.329 1534.19 42.3021 1534.08 42.2451L1534 42.2084C1533.89 42.1492 1533.79 42.0598 1533.72 41.9492C1533.65 41.8386 1533.62 41.711 1533.61 41.5794C1533.61 41.4479 1533.64 41.3172 1533.71 41.2008C1533.77 41.0845 1533.87 40.9866 1533.98 40.9175ZM1546.66 43.7848C1545.19 46.2082 1543 46.7524 1541.41 45.9391C1539.7 45.0649 1539.14 42.9518 1540.53 40.6369C1541.85 38.4467 1544.09 37.5255 1545.95 38.6509C1547.76 39.746 1547.86 41.8067 1546.66 43.7848ZM1542.57 41.6725C1541.78 42.9237 1541.63 44.0436 1542.39 44.4437C1543.11 44.8281 1543.95 44.2163 1544.75 42.8914C1545.48 41.6937 1545.77 40.6061 1544.99 40.1527C1544.22 39.7028 1543.3 40.4686 1542.57 41.6725Z" fill="#FCFEFF"/>
<g style="mix-blend-mode:multiply" opacity="0.15">
<path d="M1507.85 56.8797C1506.48 59.1504 1504.37 59.5364 1502.8 58.6371C1501.09 57.6572 1500.5 55.5457 1501.81 53.3777C1503.07 51.3168 1505.23 50.5698 1507.06 51.8055C1508.84 53.0045 1508.98 55.0271 1507.85 56.8797ZM1503.81 54.5243C1503.09 55.7082 1502.97 56.7952 1503.71 57.2371C1504.43 57.6622 1505.23 57.1192 1505.99 55.877C1506.67 54.7539 1506.91 53.6977 1506.14 53.1999C1505.4 52.7166 1504.5 53.3935 1503.81 54.5243ZM1501.08 62.7866L1512.41 55.8726C1512.52 55.8078 1512.64 55.7744 1512.76 55.7762C1512.89 55.7781 1513.01 55.8151 1513.11 55.883C1513.2 55.9423 1513.27 56.0231 1513.31 56.118C1513.36 56.2128 1513.38 56.3187 1513.38 56.426C1513.38 56.5333 1513.34 56.6385 1513.29 56.7321C1513.23 56.8256 1513.16 56.9045 1513.07 56.9615L1501.79 63.9088C1501.7 63.9673 1501.59 64.0008 1501.48 64.0059C1501.37 64.0111 1501.26 63.9877 1501.16 63.9381L1501.1 63.9065C1501 63.8552 1500.92 63.7776 1500.86 63.6818C1500.8 63.5859 1500.77 63.4753 1500.76 63.3613C1500.76 63.2472 1500.79 63.134 1500.85 63.0331C1500.9 62.9323 1500.98 62.8476 1501.08 62.7876L1501.08 62.7866ZM1512.07 65.2688C1510.79 67.3708 1508.9 67.8421 1507.52 67.138C1506.04 66.3803 1505.56 64.5488 1506.75 62.5416C1507.91 60.6415 1509.85 59.843 1511.46 60.8181C1513.02 61.7676 1513.11 63.5532 1512.07 65.2688ZM1508.52 63.439C1507.84 64.5238 1507.71 65.4947 1508.37 65.8412C1509 66.1745 1509.72 65.6438 1510.42 64.495C1511.05 63.4564 1511.3 62.5132 1510.63 62.1204C1509.96 61.7302 1509.16 62.3942 1508.52 63.4393L1508.52 63.439Z" fill="#FCFEFF"/>
</g>
<path d="M1508.09 56.8784C1506.71 59.1467 1504.6 59.5333 1503.03 58.633C1501.32 57.653 1500.73 55.5415 1502.05 53.3745C1503.3 51.314 1505.46 50.5679 1507.29 51.8042C1509.07 53.0034 1509.21 55.0265 1508.09 56.8784ZM1504.05 54.5224C1503.33 55.7065 1503.2 56.7927 1503.95 57.2355C1504.67 57.6613 1505.47 57.1183 1506.22 55.8766C1506.9 54.7541 1507.14 53.6978 1506.38 53.2002C1505.63 52.7149 1504.73 53.3912 1504.05 54.5224ZM1501.32 62.782L1512.65 55.874C1512.75 55.8091 1512.87 55.7755 1513 55.7772C1513.12 55.7789 1513.24 55.8158 1513.34 55.8836C1513.43 55.9428 1513.5 56.0236 1513.55 56.1185C1513.59 56.2134 1513.62 56.3193 1513.61 56.4266C1513.61 56.5339 1513.58 56.6391 1513.52 56.7326C1513.47 56.8262 1513.39 56.905 1513.3 56.9619L1502.03 63.9038C1501.93 63.9621 1501.83 63.9954 1501.72 64.0005C1501.61 64.0056 1501.5 63.9823 1501.4 63.9328L1501.34 63.901C1501.24 63.8497 1501.15 63.7722 1501.09 63.6763C1501.03 63.5805 1501 63.4699 1501 63.3558C1501 63.2418 1501.03 63.1285 1501.08 63.0276C1501.14 62.9268 1501.22 62.842 1501.32 62.782ZM1512.3 65.2674C1511.03 67.3681 1509.14 67.8398 1507.76 67.1349C1506.27 66.3771 1505.79 64.5454 1506.99 62.5388C1508.14 60.6403 1510.08 59.8418 1511.69 60.8173C1513.26 61.7666 1513.35 63.5528 1512.3 65.2674ZM1508.76 63.4365C1508.08 64.5211 1507.95 65.4918 1508.6 65.8386C1509.23 66.1718 1509.96 65.6415 1510.66 64.4931C1511.29 63.4549 1511.53 62.5121 1510.86 62.1191C1510.19 61.7291 1509.39 62.393 1508.76 63.4365Z" fill="#FCFEFF"/>
<g style="mix-blend-mode:multiply" opacity="0.15">
<path d="M1541.8 60.5028C1541.3 62.0913 1540.1 62.6839 1539.03 62.4181C1537.87 62.1284 1537.21 60.9731 1537.68 59.4564C1538.12 58.0143 1539.3 57.1982 1540.58 57.6187C1541.82 58.0267 1542.2 59.2067 1541.8 60.5028ZM1539.04 59.7952C1538.78 60.6235 1538.87 61.2919 1539.38 61.427C1539.87 61.557 1540.26 61.0961 1540.53 60.227C1540.78 59.4412 1540.76 58.7715 1540.24 58.6063C1539.72 58.4459 1539.28 59.0037 1539.04 59.7952ZM1538.61 65.1831L1544.37 59.1191C1544.43 59.0623 1544.49 59.0215 1544.57 59.0014C1544.64 58.9814 1544.72 58.9831 1544.79 59.0062C1544.85 59.0263 1544.9 59.0622 1544.95 59.1105C1544.99 59.1588 1545.02 59.2179 1545.03 59.2825C1545.04 59.3471 1545.04 59.415 1545.02 59.4802C1545 59.5453 1544.97 59.6056 1544.92 59.6554L1539.2 65.7288C1539.15 65.78 1539.1 65.8185 1539.03 65.8405C1538.96 65.8625 1538.9 65.8674 1538.83 65.8546L1538.79 65.8465C1538.72 65.8332 1538.66 65.8015 1538.61 65.7547C1538.56 65.7078 1538.53 65.6475 1538.51 65.58C1538.49 65.5125 1538.49 65.4401 1538.51 65.3705C1538.53 65.3008 1538.56 65.2363 1538.61 65.1836L1538.61 65.1831ZM1545.54 64.7718C1545.08 66.2425 1544.02 66.8484 1543.1 66.6664C1542.1 66.4704 1541.54 65.4628 1541.97 64.062C1542.38 62.7326 1543.42 61.9243 1544.52 62.2278C1545.6 62.5236 1545.91 63.5715 1545.54 64.7718ZM1543.15 64.2921C1542.91 65.0545 1542.97 65.6552 1543.41 65.7489C1543.84 65.8391 1544.19 65.3985 1544.44 64.5947C1544.67 63.868 1544.68 63.2641 1544.22 63.1457C1543.76 63.0281 1543.38 63.5612 1543.15 64.2921L1543.15 64.2921Z" fill="#FCFEFF"/>
</g>
<path d="M1541.93 60.4703C1541.44 62.0504 1540.24 62.6356 1539.16 62.3649C1538 62.0704 1537.33 60.9152 1537.79 59.4059C1538.23 57.9707 1539.41 57.1634 1540.69 57.5891C1541.93 58.0021 1542.32 59.1806 1541.93 60.4703ZM1539.16 59.7511C1538.9 60.5755 1538.99 61.2421 1539.5 61.3796C1540 61.5119 1540.39 61.0543 1540.66 60.1895C1540.9 59.4077 1540.88 58.7399 1540.35 58.5727C1539.83 58.4096 1539.4 58.9632 1539.16 59.7511ZM1538.76 65.119L1544.5 59.1051C1544.56 59.0487 1544.62 59.0082 1544.7 58.9885C1544.77 58.9688 1544.85 58.9707 1544.92 58.994C1544.98 59.0144 1545.03 59.0504 1545.08 59.0987C1545.12 59.1471 1545.15 59.2062 1545.16 59.2706C1545.18 59.3351 1545.17 59.4028 1545.15 59.4677C1545.14 59.5325 1545.1 59.5924 1545.05 59.6418L1539.36 65.6657C1539.31 65.7164 1539.25 65.7543 1539.18 65.7759C1539.12 65.7975 1539.05 65.802 1538.98 65.789L1538.94 65.7805C1538.87 65.767 1538.81 65.7351 1538.76 65.6882C1538.71 65.6413 1538.68 65.5811 1538.66 65.5136C1538.64 65.4462 1538.64 65.3741 1538.66 65.3047C1538.68 65.2353 1538.71 65.1712 1538.76 65.119ZM1545.71 64.7447C1545.26 66.2077 1544.2 66.8069 1543.27 66.6205C1542.27 66.4202 1541.7 65.4128 1542.12 64.0187C1542.52 62.6963 1543.56 61.8955 1544.67 62.2038C1545.75 62.5038 1546.07 63.5503 1545.71 64.7447ZM1543.31 64.2541C1543.07 65.0129 1543.13 65.612 1543.58 65.7078C1544 65.7997 1544.36 65.3623 1544.6 64.5625C1544.83 63.8393 1544.83 63.2375 1544.37 63.1172C1543.91 62.9977 1543.53 63.527 1543.31 64.2541Z" fill="#FCFEFF"/>
<g style="mix-blend-mode:multiply" opacity="0.15">
<path d="M1445.32 68.8164C1444.79 70.5483 1443.47 71.1944 1442.31 70.9046C1441.04 70.5888 1440.32 69.3292 1440.83 67.6755C1441.32 66.1033 1442.61 65.2135 1444 65.6719C1445.34 66.1167 1445.76 67.4033 1445.32 68.8164ZM1442.32 68.0449C1442.04 68.948 1442.13 69.6768 1442.68 69.824C1443.22 69.9657 1443.65 69.4633 1443.94 68.5157C1444.21 67.659 1444.2 66.9288 1443.62 66.7487C1443.06 66.5738 1442.58 67.182 1442.32 68.0449ZM1441.85 73.9192L1448.13 67.3078C1448.19 67.2459 1448.26 67.2013 1448.34 67.1795C1448.42 67.1577 1448.51 67.1595 1448.58 67.1846C1448.65 67.2067 1448.71 67.2458 1448.76 67.2984C1448.8 67.351 1448.83 67.4155 1448.85 67.4859C1448.86 67.5563 1448.86 67.6304 1448.84 67.7015C1448.82 67.7725 1448.78 67.8382 1448.73 67.8925L1442.49 74.5142C1442.44 74.57 1442.38 74.6119 1442.31 74.636C1442.23 74.66 1442.16 74.6653 1442.09 74.6513L1442.04 74.6425C1441.97 74.628 1441.9 74.5935 1441.85 74.5424C1441.79 74.4913 1441.76 74.4256 1441.74 74.352C1441.72 74.2783 1441.72 74.1994 1441.74 74.1235C1441.76 74.0475 1441.8 73.9772 1441.85 73.9198L1441.85 73.9192ZM1449.4 73.4708C1448.91 75.0743 1447.75 75.7348 1446.74 75.5364C1445.65 75.3228 1445.05 74.2242 1445.51 72.6969C1445.96 71.2475 1447.09 70.3662 1448.29 70.6972C1449.47 71.0197 1449.81 72.1621 1449.4 73.4708ZM1446.8 72.9477C1446.53 73.779 1446.6 74.4339 1447.08 74.5361C1447.55 74.6345 1447.93 74.154 1448.2 73.2777C1448.45 72.4854 1448.46 71.8269 1447.96 71.6979C1447.46 71.5697 1447.05 72.1509 1446.8 72.9478L1446.8 72.9477Z" fill="#FCFEFF"/>
</g>
<path d="M1445.46 68.7806C1444.93 70.5033 1443.62 71.1414 1442.45 70.8462C1441.18 70.5251 1440.45 69.2657 1440.95 67.6201C1441.43 66.0554 1442.71 65.1752 1444.11 65.6393C1445.47 66.0895 1445.89 67.3745 1445.46 68.7806ZM1442.44 67.9964C1442.17 68.8953 1442.26 69.6221 1442.82 69.7719C1443.36 69.9162 1443.79 69.4174 1444.08 68.4745C1444.34 67.622 1444.32 66.894 1443.74 66.7117C1443.18 66.5339 1442.7 67.1374 1442.44 67.9964ZM1442.01 73.8489L1448.27 67.2922C1448.33 67.2306 1448.4 67.1865 1448.48 67.165C1448.56 67.1435 1448.65 67.1456 1448.72 67.171C1448.79 67.1932 1448.85 67.2325 1448.9 67.2852C1448.94 67.3379 1448.98 67.4023 1448.99 67.4726C1449.01 67.5429 1449 67.6168 1448.98 67.6875C1448.96 67.7582 1448.92 67.8234 1448.87 67.8773L1442.66 74.445C1442.61 74.5002 1442.54 74.5416 1442.47 74.5651C1442.4 74.5887 1442.33 74.5936 1442.25 74.5794L1442.21 74.5701C1442.14 74.5554 1442.07 74.5207 1442.01 74.4696C1441.96 74.4184 1441.92 74.3527 1441.9 74.2792C1441.88 74.2057 1441.88 74.1271 1441.9 74.0514C1441.92 73.9758 1441.96 73.9059 1442.01 73.8489ZM1449.58 73.4408C1449.1 75.0359 1447.94 75.6893 1446.92 75.486C1445.83 75.2676 1445.22 74.1693 1445.67 72.6493C1446.11 71.2076 1447.25 70.3344 1448.46 70.6706C1449.63 70.9976 1449.98 72.1386 1449.58 73.4408ZM1446.97 72.906C1446.71 73.7332 1446.78 74.3865 1447.26 74.4909C1447.73 74.5911 1448.12 74.1142 1448.38 73.2422C1448.62 72.4538 1448.63 71.7976 1448.13 71.6664C1447.63 71.5362 1447.22 72.1133 1446.97 72.906Z" fill="#FCFEFF"/>
<g style="mix-blend-mode:multiply" opacity="0.15">
<path d="M1498.63 38.1916C1498.32 39.1856 1497.57 39.5565 1496.9 39.3902C1496.17 39.2089 1495.76 38.4859 1496.05 37.5368C1496.33 36.6344 1497.07 36.1237 1497.87 36.3868C1498.64 36.6421 1498.88 37.3806 1498.63 38.1916ZM1496.9 37.7488C1496.74 38.2671 1496.79 38.6854 1497.11 38.77C1497.42 38.8513 1497.67 38.5629 1497.84 38.019C1497.99 37.5273 1497.98 37.1083 1497.65 37.0049C1497.33 36.9045 1497.06 37.2536 1496.9 37.7488ZM1496.64 41.1204L1500.24 37.3258C1500.27 37.2902 1500.32 37.2647 1500.36 37.2521C1500.41 37.2396 1500.46 37.2406 1500.5 37.2551C1500.54 37.2677 1500.57 37.2902 1500.6 37.3204C1500.63 37.3506 1500.64 37.3876 1500.65 37.428C1500.66 37.4684 1500.66 37.5109 1500.65 37.5517C1500.63 37.5925 1500.61 37.6302 1500.58 37.6614L1497.01 41.4618C1496.97 41.4939 1496.94 41.518 1496.9 41.5318C1496.86 41.5456 1496.81 41.5486 1496.77 41.5406L1496.75 41.5355C1496.7 41.5272 1496.67 41.5074 1496.63 41.4781C1496.6 41.4488 1496.58 41.411 1496.57 41.3688C1496.56 41.3265 1496.56 41.2812 1496.57 41.2376C1496.58 41.194 1496.61 41.1537 1496.64 41.1207L1496.64 41.1204ZM1500.97 40.863C1500.68 41.7833 1500.02 42.1625 1499.44 42.0486C1498.82 41.9259 1498.47 41.2954 1498.73 40.4188C1498.99 39.5869 1499.64 39.0811 1500.33 39.2711C1501.01 39.4562 1501.2 40.1119 1500.97 40.863ZM1499.48 40.5628C1499.32 41.0399 1499.36 41.4158 1499.64 41.4745C1499.9 41.5309 1500.13 41.2552 1500.28 40.7522C1500.42 40.2975 1500.43 39.9195 1500.14 39.8455C1499.86 39.7719 1499.62 40.1054 1499.48 40.5629L1499.48 40.5628Z" fill="#FCFEFF"/>
</g>
<path d="M1498.71 38.1704C1498.41 39.1591 1497.65 39.5253 1496.98 39.3559C1496.25 39.1716 1495.83 38.4488 1496.12 37.5043C1496.4 36.6062 1497.13 36.101 1497.94 36.3674C1498.71 36.6258 1498.96 37.3633 1498.71 38.1704ZM1496.98 37.7203C1496.82 38.2362 1496.87 38.6533 1497.2 38.7393C1497.5 38.8221 1497.75 38.5358 1497.92 37.9946C1498.07 37.5054 1498.06 37.0875 1497.72 36.9829C1497.4 36.8808 1497.13 37.2272 1496.98 37.7203ZM1496.73 41.0793L1500.32 37.3161C1500.36 37.2808 1500.4 37.2554 1500.44 37.2431C1500.49 37.2308 1500.54 37.2319 1500.58 37.2465C1500.62 37.2593 1500.66 37.2818 1500.68 37.3121C1500.71 37.3423 1500.73 37.3793 1500.74 37.4196C1500.74 37.46 1500.74 37.5024 1500.73 37.5429C1500.72 37.5835 1500.7 37.621 1500.67 37.6519L1497.1 41.4214C1497.07 41.4531 1497.04 41.4769 1496.99 41.4904C1496.95 41.5039 1496.91 41.5067 1496.87 41.4986L1496.84 41.4932C1496.8 41.4848 1496.76 41.4649 1496.73 41.4355C1496.7 41.4062 1496.68 41.3685 1496.67 41.3263C1496.65 41.2841 1496.65 41.239 1496.67 41.1955C1496.68 41.1521 1496.7 41.112 1496.73 41.0793ZM1501.08 40.8451C1500.8 41.7606 1500.13 42.1356 1499.55 42.0189C1498.92 41.8936 1498.57 41.2632 1498.83 40.3908C1499.08 39.5633 1499.73 39.0622 1500.43 39.2551C1501.1 39.4428 1501.31 40.0977 1501.08 40.8451ZM1499.58 40.5381C1499.43 41.0129 1499.47 41.3878 1499.74 41.4478C1500.01 41.5053 1500.23 41.2316 1500.39 40.7311C1500.52 40.2786 1500.53 39.902 1500.24 39.8267C1499.95 39.7519 1499.72 40.0831 1499.58 40.5381Z" fill="#FCFEFF"/>
<g style="mix-blend-mode:multiply" opacity="0.15">
<path d="M1515.84 45.4671C1516.35 46.3606 1516.08 47.1318 1515.47 47.4753C1514.8 47.8494 1513.97 47.6361 1513.48 46.7826C1513.02 45.9708 1513.19 45.1134 1513.96 44.7475C1514.71 44.3925 1515.43 44.7376 1515.84 45.4671ZM1514.26 46.3445C1514.53 46.8107 1514.87 47.062 1515.17 46.9018C1515.45 46.7477 1515.42 46.3785 1515.14 45.8894C1514.89 45.4471 1514.58 45.1643 1514.26 45.3197C1513.95 45.4705 1514.01 45.8988 1514.26 46.3445ZM1516.55 48.844L1516.38 43.7669C1516.38 43.7194 1516.39 43.6727 1516.42 43.6326C1516.44 43.5924 1516.48 43.5603 1516.52 43.5402C1516.56 43.5227 1516.6 43.5149 1516.64 43.5175C1516.68 43.5201 1516.72 43.5331 1516.76 43.5552C1516.8 43.5774 1516.82 43.608 1516.85 43.6442C1516.87 43.6805 1516.88 43.7212 1516.88 43.7628L1517.07 48.8261C1517.07 48.8688 1517.06 48.9109 1517.04 48.9483C1517.02 48.9858 1516.99 49.0172 1516.96 49.0398L1516.93 49.0541C1516.9 49.0774 1516.85 49.0902 1516.81 49.0913C1516.77 49.0924 1516.72 49.0817 1516.68 49.0603C1516.64 49.0388 1516.61 49.0075 1516.59 48.9695C1516.56 48.9315 1516.55 48.8881 1516.55 48.8439L1516.55 48.844ZM1519.52 45.6982C1519.99 46.5259 1519.78 47.2415 1519.28 47.5606C1518.73 47.9037 1518.01 47.708 1517.56 46.9244C1517.14 46.1763 1517.24 45.3827 1517.88 45.0398C1518.51 44.7062 1519.14 45.0226 1519.52 45.6982ZM1518.21 46.5142C1518.45 46.948 1518.75 47.1794 1519 47.0304C1519.23 46.8872 1519.19 46.5451 1518.94 46.0927C1518.7 45.6838 1518.43 45.4198 1518.17 45.5654C1517.91 45.7101 1517.98 46.103 1518.21 46.5141L1518.21 46.5142Z" fill="#FCFEFF"/>
</g>
<path d="M1515.89 45.3896C1516.4 46.2831 1516.12 47.0544 1515.51 47.3981C1514.85 47.7724 1514.01 47.5593 1513.53 46.706C1513.07 45.8946 1513.23 45.0372 1514.01 44.6711C1514.76 44.3158 1515.48 44.6607 1515.89 45.3896ZM1514.31 46.2678C1514.57 46.7336 1514.92 46.9849 1515.21 46.8244C1515.5 46.6702 1515.47 46.301 1515.19 45.8121C1514.94 45.37 1514.62 45.0873 1514.31 45.2428C1514 45.3944 1514.05 45.8223 1514.31 46.2678ZM1516.59 48.7658L1516.43 43.69C1516.43 43.6425 1516.44 43.5958 1516.46 43.5555C1516.49 43.5153 1516.52 43.4831 1516.57 43.463C1516.6 43.4454 1516.65 43.4375 1516.69 43.4401C1516.73 43.4427 1516.77 43.4557 1516.81 43.4778C1516.84 43.4999 1516.87 43.5305 1516.89 43.5667C1516.91 43.603 1516.93 43.6438 1516.93 43.6853L1517.11 48.7479C1517.11 48.7906 1517.1 48.8326 1517.08 48.8699C1517.07 48.9073 1517.04 48.9387 1517 48.9613L1516.98 48.9755C1516.94 48.9989 1516.9 49.0118 1516.85 49.0129C1516.81 49.0141 1516.77 49.0034 1516.73 48.982C1516.69 48.9606 1516.65 48.9293 1516.63 48.8913C1516.61 48.8533 1516.59 48.81 1516.59 48.7658ZM1519.56 45.6195C1520.03 46.4464 1519.83 47.1626 1519.32 47.4817C1518.78 47.825 1518.06 47.6296 1517.61 46.8463C1517.18 46.0986 1517.29 45.3049 1517.93 44.9618C1518.56 44.6279 1519.18 44.9441 1519.56 45.6195ZM1518.25 46.436C1518.49 46.8696 1518.8 47.101 1519.04 46.9519C1519.28 46.8086 1519.24 46.4665 1518.98 46.0143C1518.75 45.6055 1518.48 45.3417 1518.21 45.4874C1517.95 45.632 1518.02 46.0246 1518.25 46.436Z" fill="#FCFEFF"/>
<g style="mix-blend-mode:multiply" opacity="0.15">
<path d="M1567.18 58.4678C1566.61 56.4412 1567.52 55.0937 1568.88 54.767C1570.36 54.4112 1571.89 55.2956 1572.43 57.2312C1572.94 59.0719 1572.21 60.651 1570.51 60.9282C1568.87 61.1971 1567.64 60.1219 1567.18 58.4678ZM1570.69 57.648C1570.4 56.5908 1569.84 55.9065 1569.19 56.0531C1568.56 56.1941 1568.44 56.9306 1568.75 58.0397C1569.03 59.0427 1569.51 59.7703 1570.21 59.6457C1570.88 59.5249 1570.97 58.6584 1570.69 57.648ZM1567.42 51.4915L1565.31 61.4781C1565.29 61.5717 1565.24 61.6557 1565.17 61.7204C1565.11 61.785 1565.02 61.8274 1564.93 61.8426C1564.85 61.8559 1564.76 61.8479 1564.68 61.8195C1564.6 61.791 1564.53 61.743 1564.47 61.6797C1564.41 61.6165 1564.37 61.5401 1564.34 61.4575C1564.32 61.3749 1564.32 61.2888 1564.33 61.207L1566.39 51.234C1566.41 51.1499 1566.45 51.0731 1566.5 51.0112C1566.56 50.9493 1566.63 50.9043 1566.71 50.8805L1566.76 50.8653C1566.85 50.8407 1566.94 50.8397 1567.03 50.8624C1567.11 50.8851 1567.19 50.9307 1567.26 50.9945C1567.33 51.0583 1567.38 51.1379 1567.4 51.2252C1567.43 51.3126 1567.44 51.4044 1567.42 51.4912L1567.42 51.4915ZM1560.1 55.9524C1559.58 54.0754 1560.32 52.7962 1561.47 52.4592C1562.7 52.097 1564.01 52.8813 1564.52 54.6626C1564.99 56.3592 1564.41 57.8481 1562.98 58.1546C1561.6 58.4525 1560.52 57.4844 1560.1 55.9524ZM1563.05 55.0979C1562.79 54.1185 1562.31 53.496 1561.76 53.6487C1561.23 53.7956 1561.14 54.4851 1561.43 55.5109C1561.69 56.4383 1562.09 57.1065 1562.68 56.9709C1563.26 56.8363 1563.31 56.0305 1563.05 55.098L1563.05 55.0979Z" fill="#FCFEFF"/>
</g>
<path d="M1567.04 58.5867C1566.49 56.5704 1567.41 55.2222 1568.77 54.8891C1570.26 54.5261 1571.79 55.3991 1572.31 57.3249C1572.81 59.1561 1572.07 60.7338 1570.37 61.0195C1568.72 61.2969 1567.49 60.2321 1567.04 58.5867ZM1570.57 57.7496C1570.28 56.6981 1569.73 56.019 1569.07 56.169C1568.44 56.313 1568.32 57.0477 1568.62 58.1512C1568.89 59.1488 1569.37 59.8714 1570.07 59.7431C1570.75 59.6182 1570.85 58.7549 1570.57 57.7496ZM1567.33 51.6336L1565.14 61.5959C1565.12 61.6893 1565.07 61.7735 1565.01 61.8384C1564.94 61.9033 1564.85 61.9462 1564.76 61.9621C1564.68 61.9758 1564.59 61.9684 1564.51 61.9405C1564.43 61.9126 1564.36 61.8652 1564.3 61.8025C1564.24 61.7398 1564.2 61.6639 1564.18 61.5817C1564.15 61.4995 1564.15 61.4137 1564.17 61.332L1566.3 51.3826C1566.32 51.2989 1566.36 51.2224 1566.41 51.1605C1566.47 51.0986 1566.54 51.0533 1566.62 51.0291L1566.68 51.0139C1566.76 50.9888 1566.85 50.9872 1566.94 51.0093C1567.02 51.0314 1567.1 51.0763 1567.17 51.1395C1567.24 51.2026 1567.29 51.2817 1567.31 51.3686C1567.34 51.4554 1567.35 51.5469 1567.33 51.6336ZM1559.95 56.1196C1559.44 54.2532 1560.2 52.9732 1561.35 52.6312C1562.59 52.2632 1563.89 53.0376 1564.39 54.8097C1564.85 56.497 1564.26 57.9846 1562.83 58.298C1561.44 58.603 1560.37 57.6439 1559.95 56.1196ZM1562.92 55.2516C1562.67 54.2771 1562.18 53.6593 1561.63 53.8146C1561.1 53.9641 1561.01 54.6516 1561.29 55.6722C1561.54 56.5949 1561.95 57.2583 1562.54 57.1199C1563.12 56.9826 1563.17 56.1798 1562.92 55.2516Z" fill="#FCFEFF"/>
<path d="M1472.81 45.1831C1472.34 43.4702 1473.12 42.3249 1474.28 42.0419C1475.54 41.7336 1476.84 42.4752 1477.29 44.1112C1477.72 45.6668 1477.08 47.007 1475.64 47.2497C1474.24 47.4854 1473.19 46.5808 1472.81 45.1831ZM1475.81 44.4719C1475.57 43.5786 1475.1 43.0018 1474.54 43.1292C1474 43.2515 1473.9 43.8757 1474.15 44.8131C1474.39 45.6606 1474.79 46.2744 1475.38 46.1654C1475.96 46.0594 1476.05 45.326 1475.81 44.4719ZM1473.05 39.2764L1471.2 47.7394C1471.18 47.8188 1471.14 47.8903 1471.08 47.9454C1471.03 48.0005 1470.95 48.037 1470.87 48.0505C1470.8 48.0621 1470.73 48.0558 1470.66 48.0321C1470.6 48.0085 1470.53 47.9681 1470.48 47.9149C1470.43 47.8616 1470.4 47.7971 1470.38 47.7273C1470.36 47.6575 1470.35 47.5846 1470.37 47.5152L1472.18 39.0631C1472.2 38.992 1472.23 38.927 1472.28 38.8744C1472.33 38.8218 1472.39 38.7834 1472.46 38.7629L1472.5 38.7499C1472.57 38.7286 1472.65 38.7273 1472.72 38.746C1472.8 38.7648 1472.87 38.8029 1472.92 38.8566C1472.98 38.9102 1473.02 38.9774 1473.04 39.0512C1473.07 39.125 1473.07 39.2027 1473.05 39.2764ZM1466.79 43.0873C1466.36 41.5018 1467 40.4144 1467.97 40.1238C1469.03 39.8112 1470.14 40.4691 1470.56 41.9745C1470.95 43.4079 1470.45 44.6716 1469.24 44.9378C1468.05 45.1969 1467.14 44.3822 1466.79 43.0873ZM1469.31 42.3498C1469.1 41.522 1468.69 40.9972 1468.22 41.1291C1467.76 41.2561 1467.69 41.8402 1467.93 42.7072C1468.14 43.491 1468.48 44.0546 1468.98 43.937C1469.48 43.8203 1469.53 43.1384 1469.31 42.3498Z" fill="#FCFEFF"/>
<g style="mix-blend-mode:multiply" opacity="0.15">
<path d="M1543.6 10.7672C1543.29 9.62554 1543.8 8.86684 1544.56 8.68312C1545.39 8.48308 1546.25 8.98158 1546.56 10.0718C1546.85 11.1087 1546.44 11.998 1545.48 12.1537C1544.56 12.3047 1543.86 11.6989 1543.6 10.7672ZM1545.58 10.3062C1545.42 9.71072 1545.1 9.32513 1544.74 9.40756C1544.38 9.48686 1544.32 9.90165 1544.49 10.5264C1544.65 11.0914 1544.92 11.5013 1545.31 11.4312C1545.69 11.3634 1545.74 10.8754 1545.58 10.3062ZM1543.74 6.83792L1542.55 12.4622C1542.54 12.5149 1542.52 12.5622 1542.48 12.5986C1542.44 12.635 1542.39 12.6589 1542.34 12.6674C1542.29 12.6749 1542.25 12.6704 1542.2 12.6543C1542.16 12.6383 1542.12 12.6112 1542.08 12.5756C1542.05 12.5399 1542.02 12.4969 1542.01 12.4504C1542 12.4039 1541.99 12.3553 1542 12.3093L1543.16 6.69265C1543.17 6.64528 1543.19 6.60207 1543.22 6.56721C1543.26 6.53235 1543.3 6.507 1543.34 6.49362L1543.37 6.48508C1543.42 6.47124 1543.47 6.4707 1543.52 6.48351C1543.57 6.49632 1543.61 6.52202 1543.65 6.55797C1543.69 6.59391 1543.71 6.63879 1543.73 6.68797C1543.75 6.73716 1543.75 6.78888 1543.74 6.83779L1543.74 6.83792ZM1539.62 9.34875C1539.32 8.29146 1539.74 7.57112 1540.39 7.38162C1541.08 7.17789 1541.82 7.61993 1542.1 8.62334C1542.37 9.57899 1542.04 10.4175 1541.24 10.5898C1540.46 10.7572 1539.86 10.2117 1539.62 9.34875ZM1541.28 8.86815C1541.13 8.31645 1540.86 7.96575 1540.55 8.05165C1540.25 8.13424 1540.21 8.52255 1540.37 9.10038C1540.51 9.62276 1540.74 9.99926 1541.07 9.92301C1541.4 9.84729 1541.43 9.39349 1541.28 8.86821L1541.28 8.86815Z" fill="#FCFEFF"/>
</g>
<path d="M1543.53 10.8372C1543.22 9.70096 1543.73 8.94184 1544.5 8.75482C1545.34 8.55104 1546.2 9.0436 1546.5 10.1288C1546.78 11.1607 1546.36 12.0492 1545.41 12.2094C1544.48 12.3648 1543.78 11.7644 1543.53 10.8372ZM1545.52 10.3672C1545.35 9.77468 1545.04 9.39185 1544.67 9.47607C1544.32 9.55686 1544.25 9.97074 1544.42 10.5926C1544.57 11.1547 1544.84 11.562 1545.23 11.4901C1545.62 11.4201 1545.67 10.9338 1545.52 10.3672ZM1543.69 6.92008L1542.46 12.5316C1542.45 12.5843 1542.43 12.6316 1542.39 12.6682C1542.35 12.7047 1542.3 12.7289 1542.25 12.7377C1542.2 12.7454 1542.16 12.7412 1542.11 12.7255C1542.06 12.7097 1542.02 12.683 1541.99 12.6476C1541.96 12.6123 1541.93 12.5695 1541.92 12.5232C1541.91 12.4768 1541.9 12.4285 1541.91 12.3825L1543.11 6.77816C1543.12 6.73099 1543.14 6.68792 1543.17 6.65307C1543.21 6.61822 1543.25 6.59278 1543.29 6.57918L1543.32 6.57064C1543.37 6.55654 1543.42 6.55568 1543.47 6.56815C1543.52 6.58063 1543.56 6.60598 1543.6 6.64159C1543.64 6.6772 1543.66 6.72179 1543.68 6.77074C1543.7 6.8197 1543.7 6.87125 1543.69 6.92008ZM1539.54 9.44395C1539.25 8.39221 1539.68 7.67142 1540.32 7.47928C1541.02 7.27252 1541.76 7.70943 1542.04 8.70805C1542.3 9.65887 1541.97 10.4967 1541.16 10.6725C1540.38 10.8437 1539.78 10.3029 1539.54 9.44395ZM1541.21 8.95628C1541.07 8.40716 1540.79 8.05887 1540.48 8.1461C1540.18 8.23009 1540.13 8.61739 1540.29 9.1925C1540.43 9.71243 1540.66 10.0864 1540.99 10.0087C1541.32 9.93159 1541.35 9.47934 1541.21 8.95628Z" fill="#FCFEFF"/>
</g>
<defs>
<clipPath id="clip0_14397_82267">
<rect width="1588" height="74" fill="white"/>
</clipPath>
</defs>
</svg>
