<svg xmlns="http://www.w3.org/2000/svg" width="42" height="42" fill="none"><path fill="url(#a)" d="M34.5 0h-27A7.5 7.5 0 0 0 0 7.5v27A7.5 7.5 0 0 0 7.5 42h27a7.5 7.5 0 0 0 7.5-7.5v-27A7.5 7.5 0 0 0 34.5 0Z"/><path fill="#fff" d="M20.995 11.556c3.082 0 3.445 0 4.658.071a6.198 6.198 0 0 1 2.134.39 3.834 3.834 0 0 1 2.188 2.187c.251.678.386 1.393.398 2.116.053 1.222.062 1.585.062 4.658 0 3.073 0 3.436-.062 4.65a6.395 6.395 0 0 1-.398 2.204c-.195.5-.498.95-.886 1.32a3.479 3.479 0 0 1-1.328.885 6.332 6.332 0 0 1-2.134.398c-1.213.053-1.576.071-4.658.071-3.082 0-3.436 0-4.65-.07a6.277 6.277 0 0 1-2.133-.4 3.48 3.48 0 0 1-1.329-.885 3.544 3.544 0 0 1-.85-1.319 6.394 6.394 0 0 1-.398-2.143c-.053-1.213-.07-1.576-.07-4.649s0-3.436.07-4.658c.005-.744.14-1.48.398-2.178a3.48 3.48 0 0 1 .886-1.32c.371-.39.825-.693 1.328-.885a6.117 6.117 0 0 1 2.134-.39c1.213-.062 1.576-.07 4.65-.07m0-2.073c-3.127 0-3.543 0-4.747.062a8.572 8.572 0 0 0-2.79.54c-.77.29-1.467.743-2.045 1.329a5.774 5.774 0 0 0-1.328 2.037 8.431 8.431 0 0 0-.532 2.798c-.053 1.222-.07 1.62-.07 4.746 0 3.126 0 3.542.07 4.746.018.956.198 1.903.532 2.799.293.765.746 1.46 1.328 2.036a5.686 5.686 0 0 0 2.046 1.329 8.37 8.37 0 0 0 2.789.531c1.23.062 1.62.07 4.746.07 3.126 0 3.542 0 4.747-.07a8.43 8.43 0 0 0 2.798-.531 5.897 5.897 0 0 0 3.365-3.365 8.686 8.686 0 0 0 .54-2.799c.053-1.23.07-1.62.07-4.746 0-3.126 0-3.542-.07-4.746a8.632 8.632 0 0 0-.54-2.798 5.896 5.896 0 0 0-3.365-3.365 8.633 8.633 0 0 0-2.798-.54c-1.222-.054-1.62-.063-4.747-.063Z"/><path fill="#fff" d="M20.996 15.079a5.915 5.915 0 1 0 0 11.83 5.915 5.915 0 0 0 0-11.83Zm0 9.74a3.843 3.843 0 1 1 3.843-3.834 3.833 3.833 0 0 1-3.843 3.834ZM28.522 14.85a1.382 1.382 0 1 1-2.764 0 1.382 1.382 0 0 1 2.764 0Z"/><defs><radialGradient id="a" cx="0" cy="0" r="1" gradientTransform="translate(-1.054 42.133) scale(77.6509)" gradientUnits="userSpaceOnUse"><stop stop-color="#F5EC53"/><stop offset=".24" stop-color="#E48244"/><stop offset=".4" stop-color="#D15767"/><stop offset=".49" stop-color="#C84278"/><stop offset="1" stop-color="#192CFA"/></radialGradient></defs></svg>