<svg xmlns="http://www.w3.org/2000/svg" width="30" height="30" fill="none"><g clip-path="url(#a)"><path fill="#231F20" d="m12.948.877-2.762-.72A4.645 4.645 0 0 0 4.5 3.454l-.689 2.603a14.225 14.225 0 0 1 9.137-5.18ZM.834 17.266l-.676 2.55a4.645 4.645 0 0 0 3.297 5.682l2.634.702a14.23 14.23 0 0 1-5.255-8.934ZM26.545 4.497 23.59 3.71a14.225 14.225 0 0 1 5.444 9.527l.812-3.073a4.645 4.645 0 0 0-3.301-5.668ZM16.986 29.091l2.832.764a4.645 4.645 0 0 0 5.681-3.297l.8-3.003c-2.253 3-5.6 4.99-9.313 5.536Z"/><path fill="#ED145B" d="M15.002 1.992a13.009 13.009 0 1 0-.009 26.018 13.009 13.009 0 0 0 .01-26.018Zm-7.367 6.49a3.714 3.714 0 1 1 7.294 1.406 3.714 3.714 0 0 1-7.294-1.407ZM13.04 19.72a3.714 3.714 0 1 1-7.293-1.417 3.714 3.714 0 0 1 7.293 1.417Zm1.576-3.008a1.65 1.65 0 1 1 .627-3.241 1.65 1.65 0 0 1-.627 3.241Zm7.749 4.8a3.714 3.714 0 1 1-7.294-1.407 3.714 3.714 0 0 1 7.294 1.406Zm-2.459-6.885a3.714 3.714 0 1 1 3.806-1.602 3.714 3.714 0 0 1-3.806 1.606v-.004Z"/></g><defs><clipPath id="a"><path fill="#fff" d="M0 0h30v30H0z"/></clipPath></defs></svg>