<svg xmlns="http://www.w3.org/2000/svg" width="42" height="42" fill="none"><path fill="#C3271A" d="M34.5 0h-27A7.5 7.5 0 0 0 0 7.5v27A7.5 7.5 0 0 0 7.5 42h27a7.5 7.5 0 0 0 7.5-7.5v-27A7.5 7.5 0 0 0 34.5 0Z"/><path fill="#fff" d="M37.102 12.867a4.251 4.251 0 0 0-2.975-2.993c-2.656-.708-13.132-.708-13.132-.708s-10.511 0-13.132.708a4.25 4.25 0 0 0-2.976 2.993c-.7 2.657-.7 8.147-.7 8.147s0 5.499.7 8.138a4.25 4.25 0 0 0 2.976 2.993c2.656.708 13.132.708 13.132.708s10.511 0 13.132-.708a4.251 4.251 0 0 0 2.975-2.993c.7-2.657.7-8.138.7-8.138s.018-5.49-.7-8.147Z"/><path fill="#C3271A" d="M17.56 25.999v-9.997l8.784 5.003-8.785 4.994Z"/></svg>