<svg xmlns="http://www.w3.org/2000/svg" width="42" height="42" fill="none"><path fill="#33A6E1" d="M21 42c11.598 0 21-9.402 21-21S32.598 0 21 0 0 9.402 0 21s9.402 21 21 21Z"/><path fill="#fff" d="m13.91 24.022-5.057-1.75s-.614-.26-.412-.85c.04-.122.123-.226.362-.405 1.121-.828 20.743-8.315 20.743-8.315a1.59 1.59 0 0 1 .881-.068.49.49 0 0 1 .212.143.533.533 0 0 1 .117.235c.034.155.049.314.043.473 0 .14-.018.267-.03.466-.12 2.046-3.685 17.326-3.685 17.326s-.215.893-.983.923a1.325 1.325 0 0 1-.55-.098 1.39 1.39 0 0 1-.472-.32c-1.505-1.375-6.706-5.084-7.854-5.899a.259.259 0 0 1-.095-.166c0-.085.074-.192.074-.192s9.054-8.543 9.293-9.452c.019-.072-.052-.105-.147-.075-.599.234-11.025 7.222-12.177 7.995a.514.514 0 0 1-.264.03Z"/></svg>